<svg width="16" height="22" viewBox="0 0 16 22" fill="none" xmlns="http://www.w3.org/2000/svg">
<path d="M11.9997 6.66671H11.1663V5.00004C11.1663 2.70004 9.29968 0.833374 6.99968 0.833374C4.69968 0.833374 2.83301 2.70004 2.83301 5.00004V6.66671H1.99967C1.08301 6.66671 0.333008 7.41671 0.333008 8.33337V16.6667C0.333008 17.5834 1.08301 18.3334 1.99967 18.3334H11.9997C12.9163 18.3334 13.6663 17.5834 13.6663 16.6667V8.33337C13.6663 7.41671 12.9163 6.66671 11.9997 6.66671ZM6.99968 14.1667C6.08301 14.1667 5.33301 13.4167 5.33301 12.5C5.33301 11.5834 6.08301 10.8334 6.99968 10.8334C7.91634 10.8334 8.66634 11.5834 8.66634 12.5C8.66634 13.4167 7.91634 14.1667 6.99968 14.1667ZM9.58301 6.66671H4.41634V5.00004C4.41634 3.57504 5.57468 2.41671 6.99968 2.41671C8.42468 2.41671 9.58301 3.57504 9.58301 5.00004V6.66671Z" fill="#2F7ABF"/>
</svg>
