<svg width="24" height="24" viewBox="0 0 24 24" fill="none" xmlns="http://www.w3.org/2000/svg">
<path d="M16 9.33334H15.3333V8.00001C15.3333 6.16001 13.84 4.66667 12 4.66667C10.16 4.66667 8.66663 6.16001 8.66663 8.00001V9.33334H7.99996C7.26663 9.33334 6.66663 9.93334 6.66663 10.6667V17.3333C6.66663 18.0667 7.26663 18.6667 7.99996 18.6667H16C16.7333 18.6667 17.3333 18.0667 17.3333 17.3333V10.6667C17.3333 9.93334 16.7333 9.33334 16 9.33334ZM12 15.3333C11.2666 15.3333 10.6666 14.7333 10.6666 14C10.6666 13.2667 11.2666 12.6667 12 12.6667C12.7333 12.6667 13.3333 13.2667 13.3333 14C13.3333 14.7333 12.7333 15.3333 12 15.3333ZM14.0666 9.33334H9.93329V8.00001C9.93329 6.86001 10.86 5.93334 12 5.93334C13.14 5.93334 14.0666 6.86001 14.0666 8.00001V9.33334Z" fill="#0F265C"/>
<rect x="0.5" y="0.5" width="23" height="23" rx="11.5" stroke="#0F265C"/>
</svg>
